<?xml version="1.0" encoding="UTF-8" standalone="no"?>
<!DOCTYPE svg PUBLIC "-//W3C//DTD SVG 1.1//EN" "http://www.w3.org/Graphics/SVG/1.1/DTD/svg11.dtd">
<!-- Created with Vectornator (http://vectornator.io/) -->
<svg height="100%" stroke-miterlimit="10" style="fill-rule:nonzero;clip-rule:evenodd;stroke-linecap:round;stroke-linejoin:round;" version="1.1" viewBox="0 0 252.741 146.523" width="100%" xml:space="preserve" xmlns="http://www.w3.org/2000/svg" xmlns:vectornator="http://vectornator.io" xmlns:xlink="http://www.w3.org/1999/xlink">
<defs/>
<clipPath id="ArtboardFrame">
<rect height="146.523" width="252.741" x="0" y="0"/>
</clipPath>
<g clip-path="url(#ArtboardFrame)" id="Logo" vectornator:layerName="Logo">
<g opacity="1" vectornator:layerName="zed">
<path d="M223.75 8.0625L223.75 63.4375L223.375 63.4375C220.883 60.4708 217.384 57.742 212.875 55.25C208.366 52.758 202.87 51.5 196.344 51.5C189.936 51.5 184.131 52.758 178.969 55.25C173.807 57.742 169.432 61.1342 165.812 65.4062C162.307 69.5443 159.604 74.3327 157.656 79.75C157.584 79.5448 157.575 79.297 157.5 79.0938C155.305 73.1604 152.26 68.1221 148.344 63.9688C144.428 59.8154 139.74 56.6328 134.281 54.4375C128.823 52.2422 122.839 51.1562 116.312 51.1562C109.548 51.1563 103.252 52.2766 97.4375 54.5312C91.6228 56.7859 86.5845 59.9685 82.3125 64.0625C80.9521 65.3662 79.8361 66.922 78.6562 68.4062L78.6562 54L3 54L3 76.4375L43.0312 76.4375L1.375 119.844L1.375 142.656L80.4375 142.656L80.4375 130.719C81.2276 131.557 81.8887 132.512 82.75 133.281C87.2 137.257 92.3792 140.298 98.3125 142.375C104.246 144.452 110.542 145.5 117.188 145.5C126.206 145.5 134.114 143.857 140.938 140.594C147.761 137.33 153.253 132.677 157.406 126.625L137.125 113.812C135.108 116.542 132.485 118.748 129.281 120.469C126.077 122.189 122.159 123.062 117.531 123.062C114.921 123.063 112.401 122.643 109.969 121.812C107.536 120.982 105.364 119.827 103.406 118.344C101.448 116.86 99.8398 115.111 98.5938 113.094C97.3478 111.076 96.6123 108.836 96.375 106.344L155.156 106.344C155.627 109.54 156.322 112.686 157.344 115.75C159.242 121.446 162.006 126.481 165.625 130.812C169.244 135.144 173.654 138.608 178.875 141.219C184.096 143.829 190.042 145.125 196.688 145.125C202.621 145.125 208.219 143.933 213.5 141.5C218.781 139.067 222.871 135.572 225.719 131.062L226.062 131.062L226.062 142.656L234.219 142.656L252.938 123.531L252.938 8.0625L223.75 8.0625ZM116.469 71.25C122.283 71.25 126.655 72.9273 129.562 76.25C132.47 79.5727 133.906 83.5595 133.906 88.1875L96.375 88.1875C96.4937 85.9328 97.0882 83.7642 98.1562 81.6875C99.2243 79.6108 100.626 77.7927 102.406 76.25C104.186 74.7073 106.283 73.4838 108.656 72.5938C111.03 71.7038 113.621 71.25 116.469 71.25ZM203.625 75.3438C206.948 75.3438 209.921 76.0072 212.531 77.3125C215.142 78.6178 217.379 80.3328 219.219 82.4688C221.058 84.6047 222.46 87.0519 223.469 89.7812C224.477 92.5106 225 95.3082 225 98.1562C225 101.004 224.477 103.771 223.469 106.5C222.46 109.229 221.058 111.677 219.219 113.812C217.379 115.948 215.142 117.663 212.531 118.969C209.921 120.274 206.948 120.938 203.625 120.938C200.184 120.938 197.173 120.274 194.562 118.969C191.952 117.663 189.749 115.948 187.969 113.812C186.189 111.677 184.859 109.195 183.969 106.406C183.079 103.618 182.625 100.817 182.625 97.9688C182.625 95.1208 183.079 92.3231 183.969 89.5938C184.859 86.8644 186.189 84.4517 187.969 82.375C189.749 80.2983 191.952 78.6178 194.562 77.3125C197.173 76.0072 200.184 75.3438 203.625 75.3438ZM70.2812 84.5C69.0618 88.8959 68.4062 93.6237 68.4062 98.6875C68.4063 106.164 69.6987 112.81 72.25 118.625C72.4725 119.132 72.7943 119.538 73.0312 120.031L35.75 120.031L70.2812 84.5Z" fill="#000000" fill-rule="nonzero" opacity="1" stroke="none" vectornator:layerName="Curve 1"/>
</g>
</g>
</svg>
