<svg xmlns="http://www.w3.org/2000/svg" height="626.667" stroke-miterlimit="10" viewBox="0 0 805 470" width="1073.333" fill-rule="nonzero" stroke-linecap="round" stroke-linejoin="round" xmlns:v="https://vecta.io/nano"><defs><linearGradient gradientUnits="userSpaceOnUse" id="A" x1="565.728" x2="562.112" y1="23.027" y2="304.134"><stop offset="0" stop-color="#700740"/><stop offset=".213" stop-color="#8a0c55"/><stop offset=".413" stop-color="#b20e43"/><stop offset=".617" stop-color="#d32830"/><stop offset=".822" stop-color="#ff530f"/><stop offset="1" stop-color="#ffad01"/></linearGradient></defs><path d="M86.819 347.276c-1.661-2.136-3.916-3.856-6.764-5.162s-5.755-1.958-8.722-1.958c-3.085 0-5.874.623-8.366 1.869s-4.628 2.908-6.408 4.984-3.174 4.48-4.183 7.209-1.513 5.637-1.513 8.722.475 5.993 1.424 8.722 2.344 5.133 4.183 7.209 4.035 3.709 6.586 4.895 5.429 1.78 8.633 1.78c2.967 0 5.904-.563 8.811-1.691s5.251-2.759 7.031-4.895l16.198 19.758c-3.678 3.56-8.425 6.349-14.24 8.366s-11.985 3.026-18.512 3.026c-7.001 0-13.528-1.068-19.58-3.204s-11.303-5.251-15.753-9.345-7.951-9.048-10.502-14.863-3.827-12.4-3.827-19.758c0-7.238 1.276-13.765 3.827-19.58s6.052-10.769 10.502-14.863 9.701-7.238 15.753-9.434 12.519-3.293 19.402-3.293a51.28 51.28 0 0 1 9.523.89c3.145.594 6.171 1.395 9.078 2.403s5.577 2.255 8.01 3.738 4.539 3.115 6.319 4.895l-16.91 19.58zm118.464 15.308c0 7.239-1.305 13.795-3.916 19.669s-6.17 10.858-10.68 14.952-9.73 7.269-15.664 9.523-12.282 3.382-19.046 3.382c-6.645 0-12.964-1.127-18.957-3.382s-11.214-5.429-15.664-9.523-7.98-9.078-10.591-14.952-3.916-12.43-3.916-19.669 1.306-13.765 3.916-19.58 6.141-10.739 10.591-14.774 9.672-7.12 15.664-9.256 12.312-3.204 18.957-3.204c6.764 0 13.113 1.068 19.046 3.204s11.155 5.222 15.664 9.256 8.07 8.96 10.68 14.774 3.916 12.342 3.916 19.58zm-28.124 0a25.28 25.28 0 0 0-1.424-8.366c-.949-2.729-2.314-5.132-4.094-7.209s-3.975-3.767-6.586-5.073-5.636-1.958-9.078-1.958-6.467.653-9.078 1.958-4.776 2.997-6.497 5.073-3.026 4.48-3.916 7.209a26.82 26.82 0 0 0 0 16.732 22.88 22.88 0 0 0 4.005 7.387c1.78 2.196 3.976 3.946 6.586 5.251s5.637 1.958 9.078 1.958 6.468-.652 9.078-1.958 4.806-3.055 6.586-5.251a22.88 22.88 0 0 0 4.005-7.387 26.82 26.82 0 0 0 1.335-8.366zm155.844 44.678v-48.416c0-2.492-.178-4.895-.534-7.209s-1.008-4.301-1.958-5.963a11.26 11.26 0 0 0-3.827-4.005c-1.602-1.008-3.708-1.513-6.319-1.513-2.492 0-4.657.534-6.497 1.602a14.46 14.46 0 0 0-4.628 4.272c-1.246 1.78-2.165 3.827-2.759 6.141a28.88 28.88 0 0 0-.89 7.209v47.882h-29.192V356.71c0-5.102-1.008-9.137-3.026-12.104s-5.221-4.45-9.612-4.45c-4.628 0-8.217 1.84-10.769 5.518s-3.827 8.188-3.827 13.528v48.06h-29.37v-88.644h28.302V330.9h.356c1.068-1.898 2.403-3.738 4.005-5.518s3.531-3.352 5.785-4.717 4.777-2.462 7.565-3.293 5.845-1.246 9.167-1.246c6.408 0 11.837 1.306 16.287 3.916s7.921 6.349 10.413 11.214c2.967-4.628 6.764-8.306 11.392-11.036s10.265-4.094 16.91-4.094c6.052 0 11.125 1.098 15.219 3.293s7.387 5.044 9.879 8.544 4.302 7.417 5.429 11.748 1.691 8.574 1.691 12.727v54.824h-29.192zm145.876-44.678c0 6.171-.949 12.104-2.848 17.8s-4.657 10.71-8.277 15.041-8.039 7.803-13.261 10.413-11.154 3.916-17.8 3.916c-5.458 0-10.62-1.097-15.486-3.293s-8.662-5.191-11.392-8.989h-.356v52.51h-29.192V318.618h27.768v10.858h.534c2.73-3.56 6.497-6.675 11.303-9.345s10.473-4.005 16.999-4.005c6.408 0 12.223 1.246 17.444 3.738s9.642 5.874 13.261 10.146 6.408 9.227 8.366 14.863 2.937 11.541 2.937 17.711zm-28.302 0c0-2.848-.445-5.636-1.335-8.366s-2.195-5.132-3.916-7.209-3.886-3.767-6.497-5.073-5.636-1.958-9.078-1.958c-3.322 0-6.289.653-8.9 1.958s-4.835 3.026-6.675 5.162-3.263 4.569-4.272 7.298-1.513 5.518-1.513 8.366a23.97 23.97 0 0 0 1.513 8.366c1.009 2.73 2.433 5.162 4.272 7.298s4.065 3.857 6.675 5.162 5.578 1.958 8.9 1.958c3.442 0 6.468-.652 9.078-1.958s4.777-3.026 6.497-5.162 3.026-4.598 3.916-7.387 1.335-5.607 1.335-8.455zm94.968 6.052h-3.738l-9.701.445c-3.263.297-6.17.861-8.722 1.691s-4.657 2.047-6.319 3.649-2.492 3.709-2.492 6.319c0 1.662.386 3.086 1.157 4.272s1.751 2.136 2.937 2.848 2.552 1.217 4.094 1.513a23.54 23.54 0 0 0 4.45.445c5.934 0 10.473-1.631 13.617-4.895s4.717-7.683 4.717-13.261v-3.026zm-53.578-37.914c5.222-4.984 11.303-8.722 18.245-11.214s14.033-3.738 21.271-3.738c7.476 0 13.795.92 18.957 2.759s9.345 4.688 12.549 8.544 5.548 8.722 7.031 14.596 2.225 12.846 2.225 20.915v44.678h-26.7v-9.434h-.534c-2.254 3.679-5.666 6.527-10.235 8.544s-9.523 3.026-14.863 3.026c-3.56 0-7.238-.474-11.036-1.424s-7.268-2.492-10.413-4.628-5.725-4.984-7.743-8.544-3.026-7.95-3.026-13.172c0-6.408 1.751-11.57 5.251-15.486s8.01-6.942 13.528-9.078 11.659-3.56 18.423-4.272 13.35-1.068 19.758-1.068v-1.424c0-4.39-1.542-7.624-4.628-9.701s-6.882-3.115-11.392-3.115c-4.153 0-8.158.89-12.015 2.67s-7.149 3.916-9.879 6.408l-14.774-15.842zm156.2 76.54v-48.416c0-2.492-.207-4.865-.623-7.12s-1.097-4.242-2.047-5.963-2.284-3.085-4.005-4.094-3.886-1.513-6.497-1.513-4.895.505-6.853 1.513-3.589 2.403-4.895 4.183-2.284 3.827-2.937 6.141-.979 4.717-.979 7.209v48.06h-29.37v-88.644h28.302V330.9h.356c1.068-1.898 2.463-3.767 4.183-5.607s3.738-3.411 6.052-4.717 4.836-2.373 7.565-3.204 5.637-1.246 8.722-1.246c5.934 0 10.977 1.068 15.13 3.204s7.506 4.895 10.057 8.277 4.391 7.269 5.518 11.659 1.691 8.782 1.691 13.172v54.824h-29.37zm97.46 13.35c-1.78 4.628-3.767 8.752-5.963 12.371s-4.806 6.705-7.832 9.256-6.586 4.48-10.68 5.785-8.929 1.958-14.507 1.958c-2.729 0-5.547-.178-8.455-.534s-5.429-.83-7.565-1.424l3.204-24.564c1.424.475 2.997.861 4.717 1.157s3.293.445 4.717.445c4.51 0 7.773-1.038 9.79-3.115s3.738-5.013 5.162-8.811l2.848-7.298-37.024-87.22h32.396l19.758 56.96h.534l17.622-56.96h30.972l-39.694 101.994zm-627.71-121.005v-22.784l41.652-43.432h-40.05v-22.428h75.65v21.894l-42.898 44.144h44.678v22.606h-79.032zm153.53-54.468c0-4.628-1.453-8.603-4.361-11.926s-7.268-4.984-13.083-4.984c-2.848 0-5.458.445-7.832 1.335s-4.45 2.106-6.23 3.649-3.204 3.352-4.272 5.429-1.661 4.242-1.78 6.497h37.558zm26.878 11.214v3.56c0 1.187-.059 2.314-.178 3.382h-64.258c.238 2.492.979 4.747 2.225 6.764s2.848 3.768 4.806 5.251 4.154 2.64 6.586 3.471a23.24 23.24 0 0 0 7.565 1.246c4.628 0 8.544-.86 11.748-2.581s5.815-3.946 7.832-6.675l20.292 12.816c-4.153 6.052-9.641 10.71-16.465 13.973s-14.744 4.895-23.763 4.895c-6.645 0-12.934-1.038-18.868-3.115s-11.125-5.103-15.575-9.078-7.95-8.87-10.502-14.685-3.827-12.46-3.827-19.936c0-7.239 1.246-13.795 3.738-19.669s5.874-10.858 10.146-14.952 9.316-7.268 15.13-9.523 12.104-3.382 18.868-3.382c6.527 0 12.52 1.098 17.978 3.293s10.146 5.37 14.062 9.523 6.972 9.197 9.167 15.13 3.293 12.697 3.293 20.292zm78.956-91.322v55.375h-.375c-2.492-2.966-5.99-5.695-10.5-8.187s-10.004-3.75-16.531-3.75c-6.408 0-12.213 1.258-17.375 3.75s-9.537 5.853-13.156 10.125-6.417 9.238-8.375 14.875-2.938 11.548-2.938 17.719.945 12.085 2.844 17.781 4.662 10.731 8.281 15.062 8.029 7.796 13.25 10.407 11.167 3.906 17.813 3.906c5.933 0 11.532-1.224 16.812-3.656s9.34-5.897 12.188-10.407h.375v11.563h8.187l18.688-19.094V165.031h-29.188zm-20.125 67.281c3.323.001 6.296.664 8.906 1.969a21.14 21.14 0 0 1 6.657 5.157c1.84 2.137 3.272 4.583 4.281 7.312s1.531 5.496 1.531 8.344-.522 5.645-1.531 8.375-2.442 5.176-4.281 7.312-4.046 3.851-6.657 5.157-5.583 1.968-8.906 1.968c-3.441 0-6.452-.663-9.062-1.968s-4.814-3.021-6.594-5.157-3.11-4.617-4-7.406-1.344-5.589-1.344-8.437.454-5.646 1.344-8.376 2.22-5.142 4-7.218 3.983-3.757 6.594-5.063 5.621-1.969 9.062-1.969z"/><path d="M573.589 23.417c-10.451 0-20.467 1.671-29.543 4.834s-17.033 7.39-23.634 12.891-11.726 12.037-15.577 19.874-5.908 16.17-5.908 25.245c0 13.751 4.379 25.826 12.354 35.451s17.467 17.059 28.468 22.56l25.783-26.857c-5.225-3.025-9.453-7.13-12.891-12.354s-5.372-11.65-5.372-18.8c0-7.425 2.832-13.712 8.057-18.8s11.375-7.52 18.8-7.52c9.075 0 16.011 2.57 20.411 7.52s6.446 11.1 6.446 18.8c0 9.075-2.295 17.669-7.52 25.783s-13.183 18.005-23.634 29.005l-65.531 67.142c-3.3-6.325-17.007-33.657-20.928-46.959l-40.305 15.805c3.481 10.3 9.265 22.964 15.04 34.377s10.901 20.518 15.577 27.394l-59.085 60.696h63.382l26.319-26.857 28.469-29.005 52.639-53.714 16.114-16.651c8.8 4.125 16.634 9.625 23.097 17.189s9.668 17.704 9.668 30.079c0 14.301-4.877 25.078-14.502 32.228s-22.462 10.743-38.137 10.743c-11.551 0-26.689-4.103-33.757-8.118-.054-.031-27.26 27.952-27.26 27.952 4.511 4.025 10.097 7.897 16.435 10.783 13.888 6.325 30.676 9.668 51.028 9.668 30.801 0 55.187-7.446 72.513-22.022s25.782-34.059 25.782-59.085c0-16.776-4.615-32.056-13.965-45.12s-24.743-24.476-46.194-34.376c6.326-6.601 12.101-14.546 17.189-24.172s7.519-19.89 7.519-30.616c0-20.076-7.06-36.118-20.948-47.805s-32.473-17.188-56.399-17.188z" fill="url(#A)"/></svg>