<?xml version="1.0" encoding="UTF-8" standalone="no"?>
<!DOCTYPE svg PUBLIC "-//W3C//DTD SVG 1.1//EN" "http://www.w3.org/Graphics/SVG/1.1/DTD/svg11.dtd">
<!-- Created with Vectornator (http://vectornator.io/) -->
<svg height="100%" stroke-miterlimit="10" style="fill-rule:nonzero;clip-rule:evenodd;stroke-linecap:round;stroke-linejoin:round;" version="1.1" viewBox="0 0 465.421 146.523" width="100%" xml:space="preserve" xmlns="http://www.w3.org/2000/svg" xmlns:vectornator="http://vectornator.io" xmlns:xlink="http://www.w3.org/1999/xlink">
<defs>
<linearGradient gradientTransform="matrix(-2.34801 143.891 -143.891 -2.34801 365.415 0.894023)" gradientUnits="userSpaceOnUse" id="LinearGradient" x1="0" x2="1" y1="0" y2="0">
<stop offset="0.0772162" stop-color="#700740"/>
<stop offset="0.219484" stop-color="#8a0c55"/>
<stop offset="0.382376" stop-color="#b20e43"/>
<stop offset="0.568862" stop-color="#d32830"/>
<stop offset="0.795704" stop-color="#ff530f"/>
<stop offset="1" stop-color="#ffad01"/>
</linearGradient>
</defs>
<g id="Logo" vectornator:layerName="Logo">
<g opacity="1" vectornator:layerName="zed">
<path d="M1.39013 142.641L1.39013 119.857L43.0421 76.425L2.99213 76.425L2.99213 53.997L78.6421 53.997L78.6421 75.891L35.7441 120.035L80.4221 120.035L80.4221 142.641L1.39013 142.641Z" fill="#cac9c9" fill-rule="nonzero" opacity="1" stroke="none" vectornator:layerName="z"/>
<path d="M133.92 88.173C133.92 83.545 132.466 79.5696 129.559 76.247C126.652 72.9243 122.291 71.263 116.476 71.263C113.628 71.263 111.017 71.708 108.644 72.598C106.271 73.488 104.194 74.7043 102.414 76.247C100.634 77.7896 99.2101 79.5993 98.1421 81.676C97.0741 83.7526 96.4808 85.9183 96.3621 88.173L133.92 88.173ZM160.798 99.387C160.798 100.574 160.798 101.76 160.798 102.947C160.798 104.134 160.739 105.261 160.62 106.329L96.3621 106.329C96.5995 108.821 97.3411 111.076 98.5871 113.093C99.8331 115.11 101.435 116.861 103.393 118.344C105.351 119.827 107.546 120.984 109.979 121.815C112.412 122.646 114.933 123.061 117.544 123.061C122.172 123.061 126.088 122.201 129.292 120.48C132.496 118.759 135.107 116.534 137.124 113.805L157.416 126.621C153.263 132.673 147.774 137.331 140.951 140.594C134.128 143.857 126.207 145.489 117.188 145.489C110.543 145.489 104.253 144.451 98.3201 142.374C92.3868 140.297 87.1951 137.271 82.7451 133.296C78.2951 129.321 74.7945 124.426 72.2431 118.611C69.6918 112.796 68.4161 106.151 68.4161 98.675C68.4161 91.4363 69.6621 84.88 72.1541 79.006C74.6461 73.132 78.0281 68.148 82.3001 64.054C86.5721 59.96 91.6155 56.7856 97.4301 54.531C103.245 52.2763 109.534 51.149 116.298 51.149C122.825 51.149 128.817 52.2466 134.276 54.442C139.735 56.6373 144.422 59.8116 148.338 63.965C152.254 68.1183 155.31 73.1616 157.505 79.095C159.7 85.0283 160.798 91.7923 160.798 99.387Z" fill="#cac9c9" fill-rule="nonzero" opacity="1" stroke="none" vectornator:layerName="e"/>
<path d="M223.751 8.06035L223.751 63.4353L223.376 63.4353C220.884 60.4687 217.385 57.7398 212.876 55.2478C208.366 52.7559 202.871 51.4978 196.344 51.4978C189.936 51.4978 184.131 52.7558 178.969 55.2478C173.807 57.7398 169.433 61.1321 165.813 65.4041C162.194 69.6761 159.396 74.6112 157.438 80.2478C155.48 85.8845 154.501 91.7959 154.501 97.9666C154.501 104.137 155.446 110.052 157.344 115.748C159.243 121.444 162.006 126.479 165.626 130.81C169.245 135.142 173.654 138.606 178.876 141.217C184.097 143.827 190.043 145.123 196.688 145.123C202.622 145.123 208.22 143.931 213.501 141.498C218.781 139.065 222.871 135.57 225.719 131.06L226.063 131.06L226.063 142.654L234.219 142.654L252.938 123.529L252.938 8.06035L223.751 8.06035ZM203.626 75.3416C206.948 75.3416 209.921 76.005 212.532 77.3103C215.143 78.6157 217.38 80.3306 219.219 82.4666C221.059 84.6026 222.461 87.0498 223.469 89.7791C224.478 92.5084 225.001 95.3061 225.001 98.1541C225.001 101.002 224.478 103.769 223.469 106.498C222.461 109.227 221.059 111.674 219.219 113.81C217.38 115.946 215.143 117.661 212.532 118.967C209.921 120.272 206.948 120.935 203.626 120.935C200.184 120.935 197.174 120.272 194.563 118.967C191.953 117.661 189.749 115.946 187.969 113.81C186.189 111.674 184.859 109.193 183.969 106.404C183.079 103.615 182.626 100.815 182.626 97.9666C182.626 95.1186 183.079 92.3209 183.969 89.5916C184.859 86.8623 186.189 84.4495 187.969 82.3728C189.749 80.2962 191.953 78.6157 194.563 77.3103C197.174 76.005 200.184 75.3416 203.626 75.3416Z" fill="#cac9c9" fill-rule="nonzero" opacity="1" stroke="none" vectornator:layerName="d"/>
</g>
<path d="M284.5 35.81L284.5 63.5773L336.611 63.5773L336.611 90.3937L284.5 90.3937L284.5 142.695L252.358 142.695L252.358 8.04277L340.985 8.04277L340.985 35.81L284.5 35.81ZM384.624 17.7423C384.624 20.1513 384.148 22.4019 383.198 24.4939C382.247 26.586 380.979 28.3928 379.394 29.9143C377.809 31.4357 375.907 32.6403 373.688 33.5278C371.469 34.4153 369.155 34.8591 366.746 34.8591C361.675 34.8591 357.427 33.1791 354.004 29.8192C350.581 26.4592 348.869 22.4336 348.869 17.7423C348.869 15.4601 349.313 13.2729 350.2 11.1808C351.088 9.08879 352.356 7.28202 354.004 5.76052C355.652 4.23903 357.554 3.00281 359.709 2.05188C361.865 1.10094 364.211 0.625478 366.746 0.625478C369.155 0.625478 371.469 1.06925 373.688 1.95679C375.907 2.84432 377.809 4.04884 379.394 5.57034C380.979 7.09183 382.247 8.89861 383.198 10.9907C384.148 13.0827 384.624 15.3333 384.624 17.7423ZM351.151 142.695L351.151 47.982L382.342 47.982L382.342 142.695L351.151 142.695ZM440.919 71.375L440.919 107.51C440.919 111.948 441.775 115.276 443.487 117.495C445.198 119.714 448.273 120.824 452.711 120.824C454.232 120.824 455.849 120.697 457.561 120.443C459.272 120.19 460.699 119.809 461.84 119.302L462.22 142.125C460.065 142.885 457.339 143.551 454.042 144.121C450.746 144.692 447.449 144.977 444.152 144.977C437.813 144.977 432.488 144.185 428.177 142.6C423.866 141.015 420.411 138.733 417.812 135.753C415.212 132.774 413.342 129.223 412.201 125.103C411.06 120.982 410.489 116.386 410.489 111.314L410.489 71.375L395.274 71.375L395.274 47.982L410.299 47.982L410.299 23.0675L440.919 23.0675L440.919 47.982L463.171 47.982L463.171 71.375L440.919 71.375Z" fill="url(#LinearGradient)" fill-rule="nonzero" opacity="1" stroke="none" vectornator:layerName="Fit"/>
</g>
</svg>
